# xmcd CD database file
#
# Track frame offsets:
#	187
#	18847
#	38632
#	59272
#	70247
#	87885
#	100307
#	113692
#	131837
#	157742
#	177730
#	192047
#	199085
#	233577
#
# Disc length: 3363 seconds
#
# Revision: 0
# Processed by: cddbd v1.4PL0 Copyright (c) Steve Scherf et al.
# Submitted via: CDex 1.50
#
DISCID=b00d210e
DTITLE=Carol Sloane - A Night Of Ballads +2
DYEAR=1990
DGENRE=Jazz
TTITLE0=Star Dust
TTITLE1=Stairway To The Stars
TTITLE2=The Very Thought Of You
TTITLE3=My Old Flame
TTITLE4=I Hadn't Anyone Till You
TTITLE5=Smoke Gets In Your Eyes
TTITLE6=Danny Boy
TTITLE7=Guess I'll Hang My Tears Out To Day
TTITLE8=Someone To Watch Over Me
TTITLE9=For All We Know
TTITLE10=These Foolish Things
TTITLE11=My Ideal
TTITLE12=How Long Has This Been Going On
TTITLE13=I Can't Get Started
EXTD=YEAR: 1990
EXTT0=
EXTT1=
EXTT2=
EXTT3=
EXTT4=
EXTT5=
EXTT6=
EXTT7=
EXTT8=
EXTT9=
EXTT10=
EXTT11=
EXTT12=
EXTT13=
PLAYORDER=
